<svg width="40" height="40" viewBox="0 0 40 40" fill="none" xmlns="http://www.w3.org/2000/svg">
<g clip-path="url(#clip0_122_3059)">
<path d="M40.0001 15.2373H38.1001V24.7623H40.0001V15.2373Z" fill="#000001"/>
<path d="M38.1 24.7627H36.1875V28.5627H38.1V24.7627Z" fill="#000001"/>
<path d="M36.1876 28.5625H34.2876V32.375H36.1876V28.5625Z" fill="#000001"/>
<path d="M36.1876 7.6123H34.2876V11.4248H36.1876V7.6123Z" fill="#000001"/>
<path d="M34.2877 32.375H32.3877V34.275H34.2877V32.375Z" fill="#000001"/>
<path d="M34.2877 5.71289H32.3877V7.61289H34.2877V5.71289Z" fill="#000001"/>
<path d="M32.3877 34.2754H28.5752V36.1879H32.3877V34.2754Z" fill="#000001"/>
<path d="M32.3877 3.7998H28.5752V5.7123H32.3877V3.7998Z" fill="#000001"/>
<path d="M28.5752 36.1875H24.7627V38.0875H28.5752V36.1875Z" fill="#000001"/>
<path d="M28.5752 1.90039H24.7627V3.80039H28.5752V1.90039Z" fill="#000001"/>
<path d="M24.7623 38.0879H15.2373V40.0004H24.7623V38.0879Z" fill="#000001"/>
<path d="M24.7624 28.5625H17.1499V30.475H24.7624V28.5625Z" fill="#000001"/>
<path d="M24.7623 0H15.2373V1.9H24.7623V0Z" fill="#000001"/>
<path d="M17.1498 26.6621H15.2373V28.5621H17.1498V26.6621Z" fill="#000001"/>
<path d="M15.2373 36.1875H11.4248V38.0875H15.2373V36.1875Z" fill="#000001"/>
<path d="M15.2373 1.90039H11.4248V3.80039H15.2373V1.90039Z" fill="#000001"/>
<path d="M11.425 34.2754H7.625V36.1879H11.425V34.2754Z" fill="#000001"/>
<path d="M11.425 3.7998H7.625V5.7123H11.425V3.7998Z" fill="#000001"/>
<path d="M7.6249 32.375H5.7124V34.275H7.6249V32.375Z" fill="#000001"/>
<path d="M7.6249 5.71289H5.7124V7.61289H7.6249V5.71289Z" fill="#000001"/>
<path d="M5.7125 28.5625H3.8125V32.375H5.7125V28.5625Z" fill="#000001"/>
<path d="M3.8126 19.0373H5.7126V20.9498H7.6251V22.8498H15.2376V20.9498H17.1501V19.0373H19.0501V17.1373H22.8626V19.0373H24.7626V20.9498H26.6626V22.8498H34.2876V20.9498H36.1876V15.2373H38.1001V11.4248H36.1876V13.3248H3.8126V11.4248H1.9126V15.2373H3.8126V19.0373Z" fill="#000001"/>
<path d="M5.7125 7.6123H3.8125V11.4248H5.7125V7.6123Z" fill="#000001"/>
<path d="M3.8126 24.7627H1.9126V28.5627H3.8126V24.7627Z" fill="#000001"/>
<path d="M1.9125 15.2373H0V24.7623H1.9125V15.2373Z" fill="#000001"/>
</g>
<defs>
<clipPath id="clip0_122_3059">
<rect width="40" height="40" fill="white"/>
</clipPath>
</defs>
</svg>
