<svg width="40" height="40" viewBox="0 0 40 40" fill="none" xmlns="http://www.w3.org/2000/svg">
<g clip-path="url(#clip0_122_2981)">
<path d="M37.1501 29.5309H35.2376V27.6246H33.3376V25.7246H31.4251V21.9121H29.5251V25.7246H27.6251V27.6246H25.7126V29.5371H21.9126V31.4371H25.7126V33.3371H27.6251V35.2496H29.5251V37.1496H31.4251V39.0496H37.1501V37.1496H39.0501V31.4371H37.1501V29.5309ZM37.1501 35.2434H35.2376V33.3309H33.3376V31.4309H31.4251V29.5309H33.3376V31.4309H35.2376V33.3309H37.1501V35.2434Z" fill="#000001"/>
<path d="M33.3378 12.3809H31.4253V21.9059H33.3378V12.3809Z" fill="#000001"/>
<path d="M31.4254 8.56836H29.5254V12.3809H31.4254V8.56836Z" fill="#000001"/>
<path d="M29.525 6.66895H27.625V8.56895H29.525V6.66895Z" fill="#000001"/>
<path d="M27.6254 16.1934H25.7129V18.0934H27.6254V16.1934Z" fill="#000001"/>
<path d="M27.6254 4.76855H25.7129V6.66855H27.6254V4.76855Z" fill="#000001"/>
<path d="M25.7125 18.0938H23.8125V20.0062H25.7125V18.0938Z" fill="#000001"/>
<path d="M25.7125 14.2812H23.8125V16.1937H25.7125V14.2812Z" fill="#000001"/>
<path d="M23.8126 20.0059H21.9126V21.9059H23.8126V20.0059Z" fill="#000001"/>
<path d="M23.8126 12.3809H21.9126V14.2809H23.8126V12.3809Z" fill="#000001"/>
<path d="M25.7126 2.85645H21.9126V4.76895H25.7126V2.85645Z" fill="#000001"/>
<path d="M21.9127 31.4307H12.3877V33.3307H21.9127V31.4307Z" fill="#000001"/>
<path d="M20.0001 12.3809H18.1001V16.1934H20.0001V12.3809Z" fill="#000001"/>
<path d="M18.1 16.1934H16.1875V18.0934H18.1V16.1934Z" fill="#000001"/>
<path d="M16.1876 18.0938H14.2876V21.9062H16.1876V18.0938Z" fill="#000001"/>
<path d="M21.9127 0.956055H12.3877V2.85605H21.9127V0.956055Z" fill="#000001"/>
<path d="M12.3877 29.5312H8.5752V31.4313H12.3877V29.5312Z" fill="#000001"/>
<path d="M12.3876 20.0059H10.4751V21.9059H12.3876V20.0059Z" fill="#000001"/>
<path d="M12.3876 12.3809H10.4751V14.2809H12.3876V12.3809Z" fill="#000001"/>
<path d="M12.3877 2.85645H8.5752V4.76895H12.3877V2.85645Z" fill="#000001"/>
<path d="M10.4752 18.0938H8.5752V20.0062H10.4752V18.0938Z" fill="#000001"/>
<path d="M10.4752 14.2812H8.5752V16.1937H10.4752V14.2812Z" fill="#000001"/>
<path d="M8.57529 27.6182H6.67529V29.5307H8.57529V27.6182Z" fill="#000001"/>
<path d="M8.57529 16.1934H6.67529V18.0934H8.57529V16.1934Z" fill="#000001"/>
<path d="M8.57529 4.76855H6.67529V6.66855H8.57529V4.76855Z" fill="#000001"/>
<path d="M6.6752 25.7188H4.7627V27.6187H6.6752V25.7188Z" fill="#000001"/>
<path d="M6.6752 6.66895H4.7627V8.56895H6.6752V6.66895Z" fill="#000001"/>
<path d="M4.76279 21.9062H2.86279V25.7188H4.76279V21.9062Z" fill="#000001"/>
<path d="M4.76279 8.56836H2.86279V12.3809H4.76279V8.56836Z" fill="#000001"/>
<path d="M2.8627 12.3809H0.950195V21.9059H2.8627V12.3809Z" fill="#000001"/>
</g>
<defs>
<clipPath id="clip0_122_2981">
<rect width="40" height="40" fill="white"/>
</clipPath>
</defs>
</svg>
