<svg width="40" height="40" viewBox="0 0 40 40" fill="none" xmlns="http://www.w3.org/2000/svg">
<path d="M25.7191 9.52539H27.6191V11.4254H29.5191V13.3254H31.4316V11.4254H33.3316V9.52539H35.2441V7.61289H37.1441V3.80039H35.2441V1.90039H33.3316V3.80039H31.4316V5.71289H29.5191V3.80039H27.6191V1.90039H25.7191V3.80039H23.8066V7.61289H25.7191V9.52539Z" fill="#000001"/>
<path d="M20.0062 19.0371H18.0938V30.4746H20.0062V19.0371Z" fill="#000001"/>
<path d="M18.0938 17.1377H16.1938V19.0377H18.0938V17.1377Z" fill="#000001"/>
<path d="M16.1938 22.8496H14.2813V26.6621H8.56885V22.8496H6.66885V30.4746H4.75635V32.3746H6.66885V39.9996H10.4813V34.2746H12.3813V39.9996H16.1938V32.3746H18.0938V30.4746H16.1938V22.8496Z" fill="#000001"/>
<path d="M16.1937 15.2373H14.2812V17.1373H16.1937V15.2373Z" fill="#000001"/>
<path d="M16.1937 11.4248H14.2812V13.3248H16.1937V11.4248Z" fill="#000001"/>
<path d="M12.3814 17.1377H10.4814V22.8502H12.3814V17.1377Z" fill="#000001"/>
<path d="M14.2813 13.3252H8.56885V15.2377H14.2813V13.3252Z" fill="#000001"/>
<path d="M8.56895 15.2373H6.66895V17.1373H8.56895V15.2373Z" fill="#000001"/>
<path d="M8.56895 11.4248H6.66895V13.3248H8.56895V11.4248Z" fill="#000001"/>
<path d="M6.66885 17.1377H4.75635V19.0377H6.66885V17.1377Z" fill="#000001"/>
<path d="M8.56885 7.6125V5.7125H14.2813V7.6125H16.1938V11.425H18.0938V3.8H16.1938V1.9H14.2813V0H8.56885V1.9H6.66885V3.8H4.75635V11.425H6.66885V7.6125H8.56885Z" fill="#000001"/>
<path d="M4.75645 19.0371H2.85645V30.4746H4.75645V19.0371Z" fill="#000001"/>
</svg>
