<svg width="40" height="40" viewBox="0 0 40 40" fill="none" xmlns="http://www.w3.org/2000/svg">
<path d="M34.2813 9.5127H32.3813V19.0377H34.2813V9.5127Z" fill="#000001"/>
<path d="M32.3814 19.0371H30.4814V24.7496H32.3814V19.0371Z" fill="#000001"/>
<path d="M32.3814 5.71289H30.4814V9.51289H32.3814V5.71289Z" fill="#000001"/>
<path d="M30.4813 24.75H28.5688V28.5625H30.4813V24.75Z" fill="#000001"/>
<path d="M30.4813 3.7998H28.5688V5.7123H30.4813V3.7998Z" fill="#000001"/>
<path d="M28.5689 28.5625H26.6689V32.375H28.5689V28.5625Z" fill="#000001"/>
<path d="M26.6687 15.2379H24.7687V11.4254H22.8562V9.51289H20.9562V7.61289H22.8562V5.71289H17.1437V7.61289H15.2437V9.51289H13.3312V11.4254H11.4312V17.1379H13.3312V19.0379H15.2437V20.9504H17.1437V22.8504H22.8562V20.9504H24.7687V19.0379H26.6687V17.1379H28.5687V11.4254H26.6687V15.2379Z" fill="#000001"/>
<path d="M26.6686 32.375H24.7686V34.275H26.6686V32.375Z" fill="#000001"/>
<path d="M26.6686 9.5127H24.7686V11.4252H26.6686V9.5127Z" fill="#000001"/>
<path d="M28.5686 1.90039H24.7686V3.80039H28.5686V1.90039Z" fill="#000001"/>
<path d="M24.7689 34.2754H22.8564V36.1879H24.7689V34.2754Z" fill="#000001"/>
<path d="M24.7689 7.6123H22.8564V9.5123H24.7689V7.6123Z" fill="#000001"/>
<path d="M22.8561 36.1875H20.9561V38.0875H22.8561V36.1875Z" fill="#000001"/>
<path d="M20.9564 38.0879H19.0439V40.0004H20.9564V38.0879Z" fill="#000001"/>
<path d="M19.0436 36.1875H17.1436V38.0875H19.0436V36.1875Z" fill="#000001"/>
<path d="M24.7687 0H15.2437V1.9H24.7687V0Z" fill="#000001"/>
<path d="M17.1437 34.2754H15.2437V36.1879H17.1437V34.2754Z" fill="#000001"/>
<path d="M15.2436 32.375H13.3311V34.275H15.2436V32.375Z" fill="#000001"/>
<path d="M15.2437 1.90039H11.4312V3.80039H15.2437V1.90039Z" fill="#000001"/>
<path d="M13.3312 28.5625H11.4312V32.375H13.3312V28.5625Z" fill="#000001"/>
<path d="M11.4311 24.75H9.51855V28.5625H11.4311V24.75Z" fill="#000001"/>
<path d="M11.4311 3.7998H9.51855V5.7123H11.4311V3.7998Z" fill="#000001"/>
<path d="M9.51865 19.0371H7.61865V24.7496H9.51865V19.0371Z" fill="#000001"/>
<path d="M9.51865 5.71289H7.61865V9.51289H9.51865V5.71289Z" fill="#000001"/>
<path d="M7.61875 9.5127H5.71875V19.0377H7.61875V9.5127Z" fill="#000001"/>
</svg>
